# xmcd
#
# Track frame offsets:
#	150
#	11342
#	23054
#	33700
#	45645
#	57018
#	67768
#	80285
#	92984
#	104748
#	116381
#	126298
#	138529
#	148810
#	161483
#	172311
#	181579
#	191523
#	200635
#	211827
#
# Disc length: 2968 seconds
#
# Revision: 3
# Processed by: cddbd v1.5.2PL0 Copyright (c) Steve Scherf et al.
# Submitted via: EasyCDDAExtractor 12.0.1.1
#
DISCID=190b9614
DTITLE=Jim Reeves - Four Walls: The Legend Begins
DYEAR=1991
DGENRE=Country
TTITLE0=Wagon Load Of Love
TTITLE1=Mexican Joe
TTITLE2=Then I'll Stop Loving You
TTITLE3=The Wilder Your Heart Beats The Sweeter You Love
TTITLE4=Give Me One More Kiss
TTITLE5=My Rambling Heart
TTITLE6=Bimbo
TTITLE7=Yonder Comes A Sucker
TTITLE8=My Lips Are Sealed
TTITLE9=According To My Heart
TTITLE10=I've Got Just The Thing For You
TTITLE11=Am I Losing You
TTITLE12=Look Behind You (I'll Be There)
TTITLE13=Four Walls
TTITLE14=The Gods Were Angry With Me
TTITLE15=I Know (And You Know)
TTITLE16=I Heard A Heart Break Last Night
TTITLE17=I Get The Blues When It Rains
TTITLE18=Anna Marie
TTITLE19=I Love You More
EXTD=
EXTT0=
EXTT1=
EXTT2=
EXTT3=
EXTT4=
EXTT5=
EXTT6=
EXTT7=
EXTT8=
EXTT9=
EXTT10=
EXTT11=
EXTT12=
EXTT13=
EXTT14=
EXTT15=
EXTT16=
EXTT17=
EXTT18=
EXTT19=
PLAYORDER=
